<?xml version="1.0" encoding="utf-8"?>
<!-- Generator: Adobe Illustrator 16.0.0, SVG Export Plug-In . SVG Version: 6.00 Build 0)  -->
<!DOCTYPE svg PUBLIC "-//W3C//DTD SVG 1.1//EN" "http://www.w3.org/Graphics/SVG/1.1/DTD/svg11.dtd">
<svg version="1.1" id="Calque_1" xmlns="http://www.w3.org/2000/svg" xmlns:xlink="http://www.w3.org/1999/xlink" x="0px" y="0px"
	 width="214.936px" height="110.688px" viewBox="0 0 214.936 110.688" enable-background="new 0 0 214.936 110.688"
	 xml:space="preserve">
<g>
	<g>
		<path fill="#FFFFFF" d="M15.673,22.54c-0.312,4.197-0.698,9.638-1.011,15.311c1.321,0.311,2.876,0.622,4.508,0.854l1.555,0.233
			c0.467,0.078,1.011,0.156,1.477,0.232c0.233,0.078,0.467,0.078,0.7,0.155c0.231,0,0.466,0,0.699,0.078
			c0.231,0,0.466,0,0.621,0.078h0.621c0.155,0,0.39,0.078,0.545,0.078h0.467c0.311,0,0.544,0,0.775,0h0.313c0.077,0,0.155,0,0.155,0
			h0.154l0.312,3.107h-0.232c-0.078,0-0.156,0-0.232,0.078h-0.39c-0.232,0-0.544,0-0.933,0h-0.544c-0.155,0-0.39,0-0.622,0
			c-0.155,0-0.389,0-0.621-0.078h-0.7c-0.231,0-0.466-0.078-0.699-0.078c-0.232,0-0.544,0-0.776-0.077
			c-0.544,0-1.011-0.078-1.555-0.156s-1.088-0.078-1.632-0.155c-1.477-0.232-2.876-0.389-4.195-0.622
			c-0.546,12.979-0.622,25.956,1.397,27.199c-1.011,2.72-6.14,4.741-8.781,4.818C-4.299,73.907,1.219,35.439,2.23,17.721
			c0.466-13.135,27.044-4.975,30.463-5.984c0,0,2.254,13.367-7.228,11.968C21.656,23.162,18.314,22.696,15.673,22.54z"/>
		<path fill="#FFFFFF" d="M40.541,69.013c-0.232,0.077-0.467,0.077-0.776,0.077h-0.077c-9.561-0.077-4.741-49.58-4.586-51.445
			c0.699-6.917,0.933-11.113,4.353-10.958c0.077,0,2.643,0,5.362,1.865c1.632,1.088,2.953,2.563,4.118,4.352
			c1.32,2.254,2.254,4.974,2.721,8.16c0.854,5.596,0.232,10.568-2.021,14.688c-1.011,1.865-2.254,3.419-3.42,4.585
			c-0.232,5.673-0.311,11.035-0.232,15.232c0.312,4.818,0.7,5.518,3.809,3.497c7.228-4.585,11.346-12.823,11.346-12.823l2.177,0.855
			c-0.39,1.398-10.336,17.796-20.205,21.371C42.251,68.858,41.318,69.013,40.541,69.013z M49.634,28.369
			c0-0.466,0.545-6.528-2.099-10.336c-0.389,5.129-0.854,11.89-1.166,18.651C47.846,34.664,49.167,32.021,49.634,28.369z"/>
		<path fill="#FFFFFF" d="M104.499,44.611c-0.544,1.943-4.817,27.588-19.895,27.588c-5.829,0-7.383-5.984-7.307-13.056
			c-2.253,3.497-5.518,6.062-10.103,5.829c-12.356-0.467-4.74-25.802-5.673-29.065c0,0,11.733-2.176,10.413,6.917
			c-1.709,11.89-2.177,19.662,3.342,13.988c5.439-5.596,4.197-18.029,4.197-18.029s13.288-2.953,12.277,9.87
			s-2.798,21.06,3.03,14.299c5.829-6.839,7.15-19.351,7.15-19.351S105.043,42.746,104.499,44.611z"/>
		<path fill="#FFFFFF" d="M142.58,44.611c-0.544,1.943-4.817,27.588-19.895,27.588c-5.829,0-7.384-5.984-7.307-13.056
			c-2.253,3.497-5.518,6.062-10.103,5.829c-12.356-0.467-4.74-25.802-5.673-29.065c0,0,11.733-2.176,10.413,6.917
			c-1.709,11.89-2.177,19.662,3.342,13.988c5.439-5.596,4.197-18.029,4.197-18.029s13.287-2.953,12.277,9.87
			c-1.011,12.823-2.798,21.06,3.03,14.299c5.829-6.839,7.15-19.351,7.15-19.351S143.124,42.746,142.58,44.611z"/>
		<path fill="#FFFFFF" d="M192.396,51.294l-14.377,8.626c6.449,39.323-10.182,41.653-11.579,41.811h-0.078
			c-6.063-0.078-6.372-28.909-5.75-50.591l-4.508,0.854c6.527,39.323-10.182,41.654-11.502,41.811h-0.077
			c-9.637-0.156-4.818-72.507-4.585-74.372c0.699-6.994,0.933-11.19,4.273-11.035c0.155,0,2.643,0.078,5.439,1.942
			c1.632,1.089,2.953,2.487,4.041,4.353c1.397,2.176,2.331,4.974,2.798,8.16c0.854,5.595,0.155,10.49-2.021,14.609
			c-0.933,1.788-2.021,3.109-3.107,4.274c-0.544,14.532-0.855,30.93-0.313,39.867c6.141-14.377,2.021-31.163,2.021-31.163
			l7.616-1.243c0.389-11.89,1.011-21.216,1.088-21.837c0.699-6.994,0.933-11.19,4.353-11.035c0.077,0,2.643,0.078,5.361,1.943
			c1.633,1.088,3.031,2.486,4.119,4.352c1.32,2.176,2.254,4.896,2.72,8.16c0.933,5.595,0.233,10.491-2.021,14.61
			c-0.934,1.71-2.021,3.108-3.108,4.273c-0.466,14.532-0.854,30.93-0.312,39.867c6.218-14.377,2.099-31.163,2.099-31.163
			c7.693-4.119,17.719-8.937,17.719-8.937L192.396,51.294z M151.519,38.006c1.32-1.942,2.485-4.508,2.953-7.849
			c0-0.466,0.544-6.528-2.1-10.336C152.141,24.406,151.752,30.856,151.519,38.006z M173.355,45.932
			c1.398-1.942,2.563-4.508,2.953-7.85c0.078-0.466,0.622-6.527-2.099-10.336C173.978,32.255,173.667,38.782,173.355,45.932z"/>
		<path fill="#FFFFFF" d="M214.546,46.632l-14.144-3.03c6.527,39.322-10.181,41.653-11.502,41.81h-0.077
			c-9.637-0.156-4.818-72.506-4.586-74.372c0.7-6.994,0.933-11.189,4.273-11.035c0.155,0,2.644,0.078,5.44,1.943
			c1.632,1.088,2.953,2.487,4.041,4.352c1.398,2.177,2.331,4.896,2.798,8.16c0.854,5.596,0.155,10.491-2.021,14.61
			c-0.934,1.709-2.021,3.107-3.109,4.273c-0.544,14.532-0.854,30.931-0.311,39.867c6.14-14.377,2.021-31.939,2.021-31.939
			c6.45,0.854,17.563,3.886,17.563,3.886L214.546,46.632z M198.771,21.763c0-0.467,0.544-6.528-2.1-10.336
			c-0.232,4.507-0.622,11.034-0.854,18.185C197.138,27.67,198.304,25.105,198.771,21.763z"/>
	</g>
	<g>
		<g>
			<path fill="#FFFFFF" d="M75.298,110.686c-31.285-6.183-17.766-45.312,6.936-30c21.887,13.564,31.518,16.382,44.291,2.507
				c1.074,8.49-11.295,32.854-37.156,17.322C73.366,90.904,66.02,99.34,75.298,110.686L75.298,110.686z"/>
		</g>
	</g>
	<g>
		<g>
			<path fill="#FFFFFF" d="M78.419,33.458c0-1.413,1.145-2.524,2.526-2.524c1.38,0,2.523,1.111,2.523,2.524
				c0,1.381-1.145,2.526-2.523,2.526C79.563,35.984,78.419,34.839,78.419,33.458z"/>
		</g>
	</g>
	<g>
		<g>
			<path fill="#FFFFFF" d="M59.793,30.908c0-1.414,1.145-2.525,2.525-2.525c1.38,0,2.524,1.112,2.524,2.525
				c0,1.38-1.146,2.525-2.524,2.525C60.937,33.433,59.793,32.288,59.793,30.908z"/>
		</g>
	</g>
	<g>
		<g>
			<path fill="#FFFFFF" d="M116.524,33.458c0-1.413,1.144-2.524,2.523-2.524s2.525,1.111,2.525,2.524
				c0,1.381-1.146,2.526-2.525,2.526S116.524,34.839,116.524,33.458z"/>
		</g>
	</g>
	<g>
		<g>
			<path fill="#FFFFFF" d="M97.96,30.933c0-1.414,1.145-2.525,2.526-2.525c1.38,0,2.523,1.111,2.523,2.525
				c0,1.38-1.145,2.524-2.523,2.524C99.104,33.458,97.96,32.314,97.96,30.933z"/>
		</g>
	</g>
</g>
</svg>
