<?xml version="1.0" standalone="no"?>
<!DOCTYPE svg PUBLIC "-//W3C//DTD SVG 20010904//EN"
 "http://www.w3.org/TR/2001/REC-SVG-20010904/DTD/svg10.dtd">
<svg version="1.0" xmlns="http://www.w3.org/2000/svg"
 width="256.000000pt" height="256.000000pt" viewBox="0 0 256.000000 256.000000"
 preserveAspectRatio="xMidYMid meet">
<metadata>
Created by potrace 1.11, written by Peter Selinger 2001-2013
</metadata>
<g transform="translate(0.000000,256.000000) scale(0.100000,-0.100000)"
fill="#000000" stroke="none">
<path d="M1830 2443 c-25 -14 -57 -34 -72 -44 -14 -11 -28 -19 -31 -19 -9 0
-231 -142 -253 -161 -11 -11 -23 -19 -26 -19 -4 0 -17 -4 -30 -9 -13 -5 -26
-9 -30 -10 -4 -1 -21 -6 -38 -11 -28 -8 -30 -7 -24 16 9 35 -20 32 -82 -10
-34 -22 -56 -30 -66 -25 -13 7 -67 -21 -105 -55 -6 -6 -32 -29 -58 -50 -78
-65 -153 -184 -185 -292 -9 -31 -17 -40 -30 -37 -12 3 -24 -11 -46 -56 -22
-46 -35 -62 -55 -66 -33 -8 -51 -27 -77 -85 -54 -124 -60 -273 -17 -443 17
-64 17 -69 0 -87 -10 -11 -15 -26 -12 -34 4 -9 0 -19 -8 -23 -21 -12 -67 -104
-60 -121 3 -8 -3 -25 -14 -36 -51 -55 -81 -163 -34 -125 14 13 14 10 -1 -20
-18 -33 -24 -110 -11 -131 4 -6 14 -8 23 -6 14 5 17 -2 19 -36 2 -22 14 -59
28 -82 44 -73 42 -71 59 -57 12 10 16 10 16 2 0 -7 8 -11 18 -9 10 2 35 -12
56 -29 44 -39 102 -70 169 -90 28 -8 74 -28 102 -44 51 -29 78 -37 127 -38 24
-1 26 -4 23 -31 -7 -51 -12 -53 -92 -46 -57 4 -74 3 -70 -7 3 -9 116 -13 488
-15 l484 -2 -35 21 c-38 24 -114 49 -147 49 -35 0 -55 28 -49 69 9 63 27 91
39 59 3 -8 25 8 56 40 47 50 50 52 40 22 -13 -36 -8 -44 20 -35 24 7 97 113
106 155 7 33 26 42 20 10 -2 -11 4 -27 13 -36 15 -16 18 -14 42 37 30 65 38
191 15 246 -16 37 -7 44 15 13 17 -24 40 -26 40 -5 0 27 -47 109 -80 142 -29
29 -30 31 -11 36 29 7 26 25 -4 33 -14 3 -22 10 -19 15 3 5 9 7 13 4 5 -2 16
1 25 8 16 12 16 15 -9 39 -14 14 -39 31 -56 38 l-31 13 31 13 c31 13 41 33 19
36 -7 0 -17 2 -23 3 -5 2 -13 3 -17 4 -4 0 5 22 20 48 60 102 73 234 37 373
-32 129 -60 172 -104 165 -14 -2 -54 -6 -87 -9 -34 -3 -73 -8 -87 -11 -23 -6
-26 -2 -41 42 -22 62 -38 84 -56 73 -17 -11 -71 75 -98 155 -12 33 -23 51 -29
47 -11 -7 -52 -101 -59 -136 -2 -10 -5 -20 -7 -22 -4 -4 -69 127 -85 171 -6
17 -13 43 -14 59 -3 25 1 30 22 31 37 2 67 21 74 47 4 15 24 31 55 46 26 12
51 22 54 22 10 0 254 139 329 187 87 56 125 123 79 138 -44 14 -58 12 -101
-12z"/>
</g>
</svg>
